<svg xmlns="http://www.w3.org/2000/svg" viewBox="0 0 68.89 40.31"><defs><style>.cls-1{fill:#414042;}</style></defs><g id="Layer_2" data-name="Layer 2"><g id="_ÎÓÈ_1" data-name="—ÎÓÈ_1"><path class="cls-1" d="M65.89,34.31H42.13V20.67A7.71,7.71,0,0,0,42,19.39,22.32,22.32,0,0,1,52.6,31.5a2.34,2.34,0,0,0,2.61,1.6h0a2.17,2.17,0,0,0,1.19-3A26.33,26.33,0,0,0,36.62,13.25l-.3,0a7.48,7.48,0,0,0-3.87,0,1.64,1.64,0,0,0-.38,0A26.34,26.34,0,0,0,12.49,30.11a2.18,2.18,0,0,0,1.19,3,2.34,2.34,0,0,0,2.61-1.6A22.32,22.32,0,0,1,26.87,19.39a7.71,7.71,0,0,0-.11,1.28V34.31H3a3,3,0,0,0,0,6H65.89a3,3,0,0,0,0-6Z"/><path class="cls-1" d="M34.45,11A5.48,5.48,0,1,0,29,5.48,5.48,5.48,0,0,0,34.45,11Z"/></g></g></svg>