<svg xmlns="http://www.w3.org/2000/svg" viewBox="0 0 63.77 62.01"><defs><style>.cls-1{fill:#414042;}</style></defs><g id="Layer_2" data-name="Layer 2"><g id="_ÎÓÈ_1" data-name="—ÎÓÈ_1"><circle class="cls-1" cx="31.88" cy="5.48" r="5.48"/><path class="cls-1" d="M31.88,35H30.2c-2,0-4.05,0-6-.12V59a3,3,0,1,0,6,0V37.61h3.37V59a3,3,0,0,0,6,0V34.89c-2,.06-4,.09-6,.11Z"/><path class="cls-1" d="M47.7,24.83,49.34,27c7.28.63,11.07,1.54,12.19,2.18-1.14.67-4.86,1.45-10.61,2a3.1,3.1,0,0,1-.32.66,3,3,0,0,1-.66.77,3.06,3.06,0,0,1-1.89.66,3,3,0,0,1-2.36-1.13l-.41-.51c-1.78.11-3.69.2-5.71.26-2.41.08-5,.13-7.69.13s-5.28,0-7.68-.13c-2-.06-3.94-.15-5.72-.26l-.4.51a3,3,0,0,1-2,1.11,2,2,0,0,1-.34,0,3,3,0,0,1-2.86-2.09l-.75-.08c-5.33-.56-8.77-1.3-9.86-1.94,1.12-.64,4.9-1.55,12.18-2.18l1.65-2.14C0,26,0,28.34,0,29.15c0,1.29,1.2,2.63,9.92,3.72l2,.22c3.61.38,7.8.65,12.31.79q2.93.09,6,.12h3.37q3.07,0,6-.12c4-.13,7.82-.36,11.16-.68,1.08-.1,2.13-.21,3.11-.33,8.72-1.09,9.93-2.43,9.93-3.72C63.77,28.27,63.75,26,47.7,24.83Z"/><path class="cls-1" d="M14.14,29a2.24,2.24,0,0,0-.37.72c0,.12,0,.25-.07.38s0,.12,0,.19a1.33,1.33,0,0,0,0,.2,1.72,1.72,0,0,0,.08.38,2.48,2.48,0,0,0,.2.44,2.13,2.13,0,0,0,.46.54h0a2.24,2.24,0,0,0,.72.37l.38.07a2.06,2.06,0,0,0,1.72-.72l0,0,.73-.92L23,24.39l1.25-1.56v8.05c2.49.08,5.07.13,7.68.13s5.21-.05,7.69-.13v-8l1.23,1.55,4.94,6.21.73.92,0,0a2.08,2.08,0,0,0,.59.48,2,2,0,0,0,1.13.24l.38-.07a2.19,2.19,0,0,0,.71-.37,2.13,2.13,0,0,0,.46-.54,2,2,0,0,0,.21-.44,2.57,2.57,0,0,0,.08-.38v-.2a1.2,1.2,0,0,0,0-.19,1.59,1.59,0,0,0-.07-.38,1.9,1.9,0,0,0-.37-.72L48,26.86l-1.64-2.12-4.18-5.43-3.24-4.22-.48-.62H38.4A4.44,4.44,0,0,0,35.08,13h-6.4a4.46,4.46,0,0,0-3.32,1.49H25.3l-.44.58h0L17.4,24.74l-1.63,2.12Z"/></g></g></svg>