<svg xmlns="http://www.w3.org/2000/svg" viewBox="0 0 36.26 36.82"><defs><style>.cls-1{fill:#414042;}</style></defs><g id="Layer_2" data-name="Layer 2"><g id="_ÎÓÈ_1" data-name="—ÎÓÈ_1"><path class="cls-1" d="M33.26,30.82H12.51l6.37-12.37L31.7,25.13a2,2,0,0,0,1.86-3.6L20.75,14.84h0l-1.3-.67-2.84-1.49-.14-.05-.91-.47a5.85,5.85,0,0,0-7.88,2.52l-7,13.62a5.85,5.85,0,0,0,2.52,7.88h0a5.94,5.94,0,0,0,2.43.64H33.26a3,3,0,0,0,0-6Z"/><path class="cls-1" d="M22.83,9.4a5.48,5.48,0,1,0-7.75-.09A5.48,5.48,0,0,0,22.83,9.4Z"/></g></g></svg>