<svg xmlns="http://www.w3.org/2000/svg" viewBox="0 0 45.77 78.44"><defs><style>.cls-1{fill:#414042;}</style></defs><g id="Layer_2" data-name="Layer 2"><g id="_ÎÓÈ_1" data-name="—ÎÓÈ_1"><circle class="cls-1" cx="22.89" cy="22.47" r="5.48"/><path class="cls-1" d="M45.45,35.19V22.31a22.31,22.31,0,0,0-44.62,0V34.68a1.71,1.71,0,0,0-.47.46,2,2,0,0,0,.42,2.69l7,5.29a2,2,0,0,0,2.68-.23l4.74-5v1.22h0V63.87L5.72,73.32A3,3,0,0,0,10,77.56L20.06,67.47l0,0a4,4,0,0,0,.41-.41l0,0a3,3,0,0,0,.66-1.89V54.6h3.41v9.27l-9.45,9.45a3,3,0,1,0,4.25,4.24L29.47,67.47l0,0A4,4,0,0,0,29.9,67l0,0a3,3,0,0,0,.66-1.89V37.91l4.73,5a2,2,0,0,0,2.69.23l7-5.29A2,2,0,0,0,45.45,35.19Zm-8.16,3.46a.66.66,0,0,1-.88-.09l-6.33-7a3.43,3.43,0,0,0-.83-.91l0,0h0a3.31,3.31,0,0,0-2-.66H18.53a3.29,3.29,0,0,0-2,.66h0l0,0a3.27,3.27,0,0,0-.83.91l-6.33,7a.66.66,0,0,1-.88.09l-5.36-4-.3-.18V22.31a20.31,20.31,0,0,1,40.62,0v12a1.94,1.94,0,0,0-.8.34Z"/></g></g></svg>