<svg xmlns="http://www.w3.org/2000/svg" viewBox="0 0 60.76 73.78"><defs><style>.cls-1{fill:#414042;}</style></defs><g id="Layer_2" data-name="Layer 2"><g id="_ÎÓÈ_1" data-name="—ÎÓÈ_1"><path class="cls-1" d="M37.81,25.05V25H24.59L12.52,9.48l2.36-2.12L16.26,8.9a2.6,2.6,0,0,0,3.86-3.47L16,.86a2.6,2.6,0,0,0-3.86,3.47l1.39,1.54h0l-2.25,2-.24-.3a2,2,0,1,0-3.19,2.48l.41.53L5.91,12.73,4.52,11.19A2.59,2.59,0,0,0,.86,11h0a2.58,2.58,0,0,0-.19,3.66l4.11,4.57a2.59,2.59,0,1,0,3.85-3.47L7.25,14.22l2.25-2L22.43,28.81V49.62h0L18.12,70.16A3,3,0,0,0,24,71.4l4.58-21.78h3.08L36.25,71.4a3,3,0,0,0,5.87-1.24L37.8,49.62h0V29.1H49.09a7,7,0,0,1,0-4.05Z"/><path class="cls-1" d="M55.77,22.09a5,5,0,0,0-4.55,3,5,5,0,0,0,0,4.05,5,5,0,1,0,4.55-7Zm2,5a2,2,0,1,1-2-2A2,2,0,0,1,57.76,27.07Z"/><path class="cls-1" d="M55.77,26.09a1,1,0,1,0,1,1A1,1,0,0,0,55.77,26.09Z"/><circle class="cls-1" cx="30.12" cy="17.5" r="5.48"/></g></g></svg>