<svg xmlns="http://www.w3.org/2000/svg" viewBox="0 0 58.46 57.12"><defs><style>.cls-1{fill:#414042;}</style></defs><g id="Layer_2" data-name="Layer 2"><g id="_ÎÓÈ_1" data-name="—ÎÓÈ_1"><path class="cls-1" d="M57.2,20.83,37.93,13H23.29L5.92,5.12A2,2,0,0,0,4.22,8.8l18.33,8.47V32.21L1,51.9a3,3,0,1,0,4,4.44L25.54,37.61H36.39l8.11,4.13a.82.82,0,0,1,.31,1.14l-5.7,9.6a3,3,0,0,0,1,4.08h0a3,3,0,0,0,4.14-1.05L52,42.16a2.82,2.82,0,0,0-1.14-3.9l-13-7V17.42l17.75,7.16a2,2,0,0,0,1.52-3.75Z"/><path class="cls-1" d="M30.24,11a5.48,5.48,0,1,0-5.48-5.48A5.48,5.48,0,0,0,30.24,11Z"/></g></g></svg>