<svg xmlns="http://www.w3.org/2000/svg" viewBox="0 0 51.51 37.66"><defs><style>.cls-1{fill:#414042;}</style></defs><g id="Layer_2" data-name="Layer 2"><g id="_ÎÓÈ_1" data-name="—ÎÓÈ_1"><path class="cls-1" d="M47.68,10a5.48,5.48,0,1,0,3.57,6.88A5.47,5.47,0,0,0,47.68,10Z"/><path class="cls-1" d="M48.75,33.61h-9V21h0v-.47A5.62,5.62,0,0,0,34.12,15L20.86,15a5.55,5.55,0,0,0-.72.05L6.88,15A.83.83,0,0,1,6,14.18L6.11,3a3,3,0,1,0-6,0l0,15.46a2.81,2.81,0,0,0,3,2.79l12.05-.1V22l-.11,9a.83.83,0,0,1-.84.84L3,31.58a3,3,0,1,0-.06,6l15.45.11a2.82,2.82,0,0,0,2.82-2.93V26.27l14.51-.07v9.44a2,2,0,0,0,2,2h11a2,2,0,0,0,0-4Z"/></g></g></svg>