<svg xmlns="http://www.w3.org/2000/svg" viewBox="0 0 60.05 52.55"><defs><style>.cls-1{fill:#414042;}</style></defs><g id="Layer_2" data-name="Layer 2"><g id="_ÎÓÈ_1" data-name="—ÎÓÈ_1"><path class="cls-1" d="M59.62,10.65a2,2,0,0,0-2.84-.36L41.84,21.87l-.37-.24L23.73,11.46a.47.47,0,0,0-.19-.06L4.5.4a3,3,0,0,0-3,5.2L20.1,16.34a5.62,5.62,0,0,0-.67,2.4h0v.05a6,6,0,0,0,0,.73l.2,30a3,3,0,0,0,6,0V26l14.54,8.34V50.53a2,2,0,0,0,4,0L44.4,27h0a5.94,5.94,0,0,0-.2-1.78L59.26,13.49A2,2,0,0,0,59.62,10.65Z"/><path class="cls-1" d="M46.74,28.7a5.48,5.48,0,1,0,7.74.43A5.48,5.48,0,0,0,46.74,28.7Z"/></g></g></svg>