<svg xmlns="http://www.w3.org/2000/svg" viewBox="0 0 50.07 59.02"><defs><style>.cls-1{fill:#414042;}</style></defs><g id="Layer_2" data-name="Layer 2"><g id="_ÎÓÈ_1" data-name="—ÎÓÈ_1"><path class="cls-1" d="M13.8,13.94a5.48,5.48,0,1,0-6.88-3.57A5.47,5.47,0,0,0,13.8,13.94Z"/><path class="cls-1" d="M49.59,17.31,40.88,4.54A3,3,0,1,0,36,7.93l6.37,9.17a.84.84,0,0,1-.23,1.17L34,23.86l-7.15-7.65,4.1-.44a2.08,2.08,0,0,0,1.79-1.6l2.69-11.7a2,2,0,1,0-3.94-.9l-2.23,9.71a.89.89,0,0,1-.77.68l-8.12.95h0a5.65,5.65,0,0,0-3,1.44L.78,27.31a2,2,0,0,0,2.48,3.2l12.82-9.87a5.9,5.9,0,0,0,1.06,1.67l9.58,10.24V56a3,3,0,1,0,6,0V33.75l5.62-5.25,10.4-7.22A2.82,2.82,0,0,0,49.59,17.31Z"/></g></g></svg>