<svg xmlns="http://www.w3.org/2000/svg" viewBox="0 0 29.25 68.87"><defs><style>.cls-1{fill:#414042;}</style></defs><g id="Layer_2" data-name="Layer 2"><g id="_ÎÓÈ_1" data-name="—ÎÓÈ_1"><path class="cls-1" d="M9.15,12.59a5.48,5.48,0,1,0,5.48-5.48A5.48,5.48,0,0,0,9.15,12.59Z"/><path class="cls-1" d="M22.31,23.16,29,12.36a2.06,2.06,0,0,0-.18-2.4L21.1.73A2,2,0,0,0,18,3.31L24.36,11a.91.91,0,0,1,.08,1l-4.9,8.09H9.71L4.82,12a.89.89,0,0,1,.07-1l6.37-7.66A2,2,0,0,0,8.15.73L.48,10a2.06,2.06,0,0,0-.18,2.4l6.64,10.8V44.72H7L2.63,65.25A3,3,0,1,0,8.5,66.49l4.58-21.77h3.09l4.58,21.77a3,3,0,1,0,5.87-1.24L22.3,44.72h0Z"/></g></g></svg>