<svg xmlns="http://www.w3.org/2000/svg" viewBox="0 0 24.12 73.6"><defs><style>.cls-1{fill:#414042;}</style></defs><g id="Layer_2" data-name="Layer 2"><g id="_ÎÓÈ_1" data-name="—ÎÓÈ_1"><path class="cls-1" d="M24.06,70,19.74,49.45h0V24.82h0L19.55,2a2,2,0,1,0-4,0l0,9.24a7,7,0,0,1,.06,12v1.5H8.5v-1.5a7,7,0,0,1,.06-12l0-9.24a2,2,0,1,0-4,0L4.38,24.82h0V49.45h0L.06,70a3,3,0,0,0,5.88,1.24l4.58-21.77h3.09l4.58,21.77A3,3,0,1,0,24.06,70Z"/><path class="cls-1" d="M6.58,17.32a5.49,5.49,0,1,0,2-4.21A5.49,5.49,0,0,0,6.58,17.32Z"/></g></g></svg>