<svg xmlns="http://www.w3.org/2000/svg" viewBox="0 0 36.28 65.81"><defs><style>.cls-1{fill:#414042;}</style></defs><g id="Layer_2" data-name="Layer 2"><g id="_ÎÓÈ_1" data-name="—ÎÓÈ_1"><path class="cls-1" d="M26.88,19A5.48,5.48,0,1,0,27,11.23,5.47,5.47,0,0,0,26.88,19Z"/><path class="cls-1" d="M33,26.57a4.51,4.51,0,0,0-2.35-3.07L24.3,20.22l-3.22-9.85a.89.89,0,0,1,.34-1l8.16-5.71A2,2,0,0,0,27.26.37L17.43,7.25a2.06,2.06,0,0,0-.8,2.27l3.8,13-7.1,13.77h0L.33,61.44a3,3,0,0,0,5.34,2.75L16.21,43.75l.53.27a5,5,0,0,0,2.26.56l6.66,19.21a3,3,0,1,0,5.67-2l-6.4-18.46L34,38a2.07,2.07,0,0,0,1-2.2Zm-2.82,9-4.81,2.86L29.72,30l.89,4.63A.9.9,0,0,1,30.19,35.55Z"/></g></g></svg>