<svg xmlns="http://www.w3.org/2000/svg" viewBox="0 0 45.74 61.74"><defs><style>.cls-1{fill:#414042;}</style></defs><g id="Layer_2" data-name="Layer 2"><g id="_ÎÓÈ_1" data-name="—ÎÓÈ_1"><path class="cls-1" d="M30.65,11a5.48,5.48,0,1,0-5.48-5.48A5.48,5.48,0,0,0,30.65,11Z"/><path class="cls-1" d="M38.34,36.15a2,2,0,0,0,1.3-1l5.84-10.49a2.07,2.07,0,0,0-.27-2.39l-7.59-8.48h0a2.7,2.7,0,0,0-2-.84H6A2,2,0,1,0,6,17H23V37.61h0L18.65,58.12A3,3,0,0,0,21,61.67h0a3,3,0,0,0,3.55-2.31L29.1,37.61h3.1l4.57,21.75a3,3,0,0,0,5.88-1.24L38.33,37.61h0ZM41,24.5l-2.61,4.7V20.59l2.5,2.88A.89.89,0,0,1,41,24.5Z"/><path class="cls-1" d="M11.23,21.31a3.4,3.4,0,0,0-3.4-3.39H5.24a3.4,3.4,0,0,0-3.4,3.39v2.94A6.47,6.47,0,0,0,0,28.78a6.54,6.54,0,1,0,11.23-4.53ZM3.52,23V21.31A1.72,1.72,0,0,1,5.24,19.6H7.83a1.72,1.72,0,0,1,1.71,1.71V23a6.49,6.49,0,0,0-6,0Z"/></g></g></svg>