<svg xmlns="http://www.w3.org/2000/svg" viewBox="0 0 46.96 31.87"><defs><style>.cls-1{fill:#414042;}</style></defs><g id="Layer_2" data-name="Layer 2"><g id="_ÎÓÈ_1" data-name="—ÎÓÈ_1"><path class="cls-1" d="M9.7,9H5.15a3.07,3.07,0,0,1,0-6.14h5.12A5.47,5.47,0,1,0,9.7,9Z"/><path class="cls-1" d="M46.17,26.85,35.68,15.5a2.83,2.83,0,0,0-4.07-.05l-5.77,5.82-9.12-9.12A5.69,5.69,0,0,0,14.93,11l3-3A2.28,2.28,0,0,0,17.3,4.3h0a2.25,2.25,0,0,0-.95-.21H5.15a1.82,1.82,0,0,0,0,3.64h7.58l-3.82,4a5.32,5.32,0,0,0-.46.37,5.85,5.85,0,0,0,0,8.27l9.14,9.14a5.84,5.84,0,0,0,8.27,0l7.2-7a.84.84,0,0,1,1.19,0l7.51,8.27a3,3,0,1,0,4.41-4Z"/></g></g></svg>