<svg xmlns="http://www.w3.org/2000/svg" viewBox="0 0 49.64 31.81"><defs><style>.cls-1{fill:#414042;}</style></defs><g id="Layer_2" data-name="Layer 2"><g id="_ÎÓÈ_1" data-name="—ÎÓÈ_1"><path class="cls-1" d="M48.65,26.45,37.18,16.09a2.83,2.83,0,0,0-4,.31l-4,4.87-7.68-8.21h16.2a2,2,0,0,0,0-4.05H15.89a5.83,5.83,0,0,0-5.15,9.75L21.21,30a5.86,5.86,0,0,0,8.27.27h0c.13-.12.23-.27.35-.4h0l5.36-6.45a.82.82,0,0,1,1.18-.08l8.23,7.56a3,3,0,1,0,4-4.42Z"/><path class="cls-1" d="M10.46,3.19a5.48,5.48,0,1,0-2.69,7.27A5.49,5.49,0,0,0,10.46,3.19Z"/></g></g></svg>