<svg xmlns="http://www.w3.org/2000/svg" viewBox="0 0 53.55 56.85"><defs><style>.cls-1{fill:#414042;}</style></defs><g id="Layer_2" data-name="Layer 2"><g id="_ÎÓÈ_1" data-name="—ÎÓÈ_1"><path class="cls-1" d="M37.1,9.4a5.48,5.48,0,1,0-7.75-.09A5.48,5.48,0,0,0,37.1,9.4Z"/><path class="cls-1" d="M53.28,4.83a2,2,0,0,0-2.77-.74L33.44,13.94,24.65,9.41,7.8,3.8A2,2,0,1,0,6.5,7.63l16.24,5.5L16.33,25.56,7.21,24.09a.82.82,0,0,1-.71-.95l1.8-11a3,3,0,1,0-5.9-.94L0,26.44a2.82,2.82,0,0,0,2.48,3.22l13.43,2a5.2,5.2,0,0,0,2.18,2.1l1.11.57a4.64,4.64,0,0,0,1,.38V53.85a3,3,0,0,0,6,0V31.92l6.71-13L52.54,7.59A2,2,0,0,0,53.28,4.83Z"/></g></g></svg>