<svg xmlns="http://www.w3.org/2000/svg" viewBox="0 0 45.5 36.17"><defs><style>.cls-1{fill:#414042;}</style></defs><g id="Layer_2" data-name="Layer 2"><g id="_ÎÓÈ_1" data-name="—ÎÓÈ_1"><path class="cls-1" d="M45.5,3a3,3,0,0,0-6,0V24.86l-13,.05a5.63,5.63,0,0,0-4.77,2.69l2.68-.3A3.42,3.42,0,0,1,27,28a3.47,3.47,0,0,1,1.32,2.35,3.52,3.52,0,0,1-3.08,3.91h0l-2.6.31a5.58,5.58,0,0,0,3.9,1.57l13.27-.06a5.73,5.73,0,0,0,5.71-5.75V28.77h0Z"/><path class="cls-1" d="M18.89,27.92a5.48,5.48,0,0,0-10.7-1.73,5.38,5.38,0,0,0-.09,3Z"/><path class="cls-1" d="M26.81,30.56a2,2,0,0,0-2.25-1.77l-3.51.4-2.4.27-10,1.14-6.84.78a2.08,2.08,0,1,0,.49,4.13l19.22-2.29L25,32.8A2,2,0,0,0,26.81,30.56Z"/></g></g></svg>