<svg xmlns="http://www.w3.org/2000/svg" viewBox="0 0 49.2 46.58"><defs><style>.cls-1{fill:#414042;}</style></defs><g id="Layer_2" data-name="Layer 2"><g id="_ÎÓÈ_1" data-name="—ÎÓÈ_1"><path class="cls-1" d="M8.08,6a3.06,3.06,0,0,1,3.07-3.07h4.74a5.48,5.48,0,1,0-.7,6.15h-4A3.07,3.07,0,0,1,8.08,6Z"/><path class="cls-1" d="M35.8,25.33,22.71,12.24A5.69,5.69,0,0,0,20.92,11l-3.77,3.77-2.58-2.59.33-.35a5.32,5.32,0,0,0-.46.37h0a5.85,5.85,0,0,0,0,8.27l9.14,9.15a5.83,5.83,0,0,0,4.5,1.67l3.47-6Z"/><path class="cls-1" d="M46.27,25.33H35.8l.19.19-4.14,4.14a5.76,5.76,0,0,1-3.77,1.67l0,0,14.39.19a.83.83,0,0,1,.84.84l-.18,11.16a3,3,0,1,0,6,.07l.11-15.45A2.84,2.84,0,0,0,46.27,25.33Z"/><path class="cls-1" d="M36,25.52l-.19-.19H31.55l-3.47,6a5.76,5.76,0,0,0,3.77-1.67Z"/><path class="cls-1" d="M20.92,11l3-3a2.29,2.29,0,0,0-.6-3.67l-.37.26c-.16.11-.32.21-.47.33h0l-.24.17-.34.26h0c-.94.7-1.9,1.35-2.85,2l-.65.43h.36l-3.82,4A5.8,5.8,0,0,1,20.92,11Z"/><path class="cls-1" d="M17.15,14.81,20.92,11a5.8,5.8,0,0,0-6,.83l-.33.35Z"/><path class="cls-1" d="M16.53,5.48a5.6,5.6,0,0,1-.11,1.09h1.11l.66-.44,1.07-.71H16.52S16.53,5.46,16.53,5.48Z"/><path class="cls-1" d="M16.52,5.42H11.15a.57.57,0,0,0,0,1.14h5.28a5.6,5.6,0,0,0,.11-1.09S16.52,5.44,16.52,5.42Z"/><path class="cls-1" d="M22.93,4.65l.37-.26h0Z"/><path class="cls-1" d="M21.86,5.42H20.6c-.57.39-1.14.78-1.72,1.16h1.34L18.34,7.82h0L19,7.39C20,6.77,20.92,6.12,21.86,5.42Z"/><polygon class="cls-1" points="22.45 4.99 22.46 4.98 22.45 4.99 22.45 4.99"/><path class="cls-1" d="M18.19,6.13l-.66.44h1.35c.58-.38,1.15-.77,1.72-1.16H19.26Z"/><path class="cls-1" d="M21.87,5.42l.34-.26L22.45,5c-.19.15-.39.28-.59.43Z"/><path class="cls-1" d="M22.46,5c.15-.12.31-.22.47-.33l-.31.22A.91.91,0,0,0,22.46,5Z"/><path class="cls-1" d="M16.29,7.07h.49l.75-.5H16.42C16.38,6.74,16.34,6.9,16.29,7.07Z"/><path class="cls-1" d="M19.26,5.42c.25-.17.51-.33.76-.51H16.5a4.35,4.35,0,0,1,0,.51Z"/><path class="cls-1" d="M10.08,6a1.07,1.07,0,0,0,1.06,1.07h5.15c.05-.17.09-.33.13-.5H11.14a.57.57,0,0,1,0-1.14h5.37a4.35,4.35,0,0,0,0-.51H11.15A1.07,1.07,0,0,0,10.08,6Z"/><path class="cls-1" d="M17,7.82h1.32l1.88-1.24H18.88L17.27,7.65Z"/><path class="cls-1" d="M22.31,4.17A3.71,3.71,0,0,0,22,4.4c-.46.35-.92.69-1.39,1h1.26c.2-.15.4-.28.59-.43h0a.91.91,0,0,1,.16-.11l.31-.22.36-.26A2.24,2.24,0,0,0,22.31,4.17Z"/><path class="cls-1" d="M16.78,7.07h-.49a2.5,2.5,0,0,1-.09.25h1.54l-.47.33,1.61-1.07H17.53Z"/><path class="cls-1" d="M21.62,4.67H16.46c0,.08,0,.16,0,.24H20c-.25.18-.51.34-.76.51H20.6c.47-.33.93-.67,1.39-1C21.87,4.49,21.74,4.57,21.62,4.67Z"/><path class="cls-1" d="M9.83,6a1.33,1.33,0,0,0,1.31,1.32H16.2a2.5,2.5,0,0,0,.09-.25H11.14a1.07,1.07,0,0,1,0-2.14H16.5c0-.08,0-.16,0-.24H11.15A1.32,1.32,0,0,0,9.83,6Z"/><path class="cls-1" d="M17,7.82h0l.25-.17Z"/><path class="cls-1" d="M22,4.4a3.71,3.71,0,0,1,.32-.23h0C22.2,4.25,22.09,4.31,22,4.4Z"/><path class="cls-1" d="M9.33,6a1.81,1.81,0,0,1,1.82-1.82h0A1.81,1.81,0,0,0,9.33,6h0a1.82,1.82,0,0,0,1.81,1.82h0A1.82,1.82,0,0,1,9.33,6Z"/><path class="cls-1" d="M22.29,4.17H16.36a4,4,0,0,1,.1.5h5.16c.12-.1.25-.18.37-.27s.21-.15.31-.23Z"/><path class="cls-1" d="M17,7.82l.26-.17.47-.33H16.2a4.34,4.34,0,0,1-.2.5Z"/><path class="cls-1" d="M11.15,4.17a1.82,1.82,0,0,0,0,3.64H16a4.34,4.34,0,0,0,.2-.5H11.14a1.32,1.32,0,0,1,0-2.64h5.31a4,4,0,0,0-.1-.5Z"/><path class="cls-1" d="M11.47,23.64A11.47,11.47,0,1,0,22.94,35.11,11.47,11.47,0,0,0,11.47,23.64Z"/></g></g></svg>