<svg xmlns="http://www.w3.org/2000/svg" viewBox="0 0 40.87 35.57"><defs><style>.cls-1{fill:#414042;}</style></defs><g id="Layer_2" data-name="Layer 2"><g id="_ÎÓÈ_1" data-name="—ÎÓÈ_1"><path class="cls-1" d="M35.39,12.45a5.48,5.48,0,1,0,5.48,5.48A5.48,5.48,0,0,0,35.39,12.45Z"/><path class="cls-1" d="M28,7.74,12.09.74A9,9,0,0,0,1.64,3.29C-.85,6.23.24,10.66.25,14.18q0,9.16,0,18.32a3,3,0,0,0,6,0V10.78l15.92,7L15.63,32.73a2,2,0,1,0,3.7,1.63l6.91-14.79h0l3.37-7.63A3.2,3.2,0,0,0,28,7.74Z"/></g></g></svg>