<svg xmlns="http://www.w3.org/2000/svg" viewBox="0 0 50.62 72.87"><defs><style>.cls-1{fill:#414042;}</style></defs><g id="Layer_2" data-name="Layer 2"><g id="_ÎÓÈ_1" data-name="—ÎÓÈ_1"><circle class="cls-1" cx="25.31" cy="13.11" r="5.48"/><path class="cls-1" d="M46.28,0V3.34H38.7l-.2-.67a2,2,0,0,0-4,.67H16.07a2,2,0,0,0-4-.67l-.2.67H4.34V0H0V72.87H4.34V5.34h7L8.67,14.17a2.08,2.08,0,0,0,.78,2.28l8.17,5.88V66.64a3,3,0,0,0,6,0V45.24H27v21.4a3,3,0,0,0,6,0V22.33l8.17-5.88A2.08,2.08,0,0,0,42,14.17L39.3,5.34h7V72.87h4.34V0ZM37.49,13.38a.91.91,0,0,1-.33,1l-8.43,6.25H21.89l-8.43-6.25a.91.91,0,0,1-.33-1l2.41-8H35.08Z"/></g></g></svg>