<svg xmlns="http://www.w3.org/2000/svg" viewBox="0 0 54.9 75.42"><defs><style>.cls-1{fill:#414042;}</style></defs><g id="Layer_2" data-name="Layer 2"><g id="_ÎÓÈ_1" data-name="—ÎÓÈ_1"><path class="cls-1" d="M27.45,24.37A5.48,5.48,0,1,0,22,18.89,5.48,5.48,0,0,0,27.45,24.37Z"/><path class="cls-1" d="M40.31,4.43h0a2,2,0,0,0-2.46,1.46l-.07.25H17.12l-.07-.25a2,2,0,0,0-2.46-1.46h0a2,2,0,0,0-1.5,1.71H9.14v2h4.31l6.31,24.59V72.42a3,3,0,0,0,6,0V51h3.38v21.4a3,3,0,0,0,6,0V32.73L41.45,8.14h4.31v-2H41.81A2,2,0,0,0,40.31,4.43Zm-7.85,22h-10L17.64,8.14H37.26Z"/><rect class="cls-1" y="2.63" width="2.86" height="9.02"/><rect class="cls-1" x="52.04" y="2.63" width="2.86" height="9.02"/><polygon class="cls-1" points="3.86 2.63 3.86 11.65 3.86 14.27 8.14 14.27 8.14 8.14 8.14 6.14 8.14 0 3.86 0 3.86 2.63"/><polygon class="cls-1" points="46.76 6.14 46.76 8.14 46.76 14.27 51.04 14.27 51.04 11.65 51.04 2.63 51.04 0 46.76 0 46.76 6.14"/></g></g></svg>