<svg xmlns="http://www.w3.org/2000/svg" viewBox="0 0 65.78 64.91"><defs><style>.cls-1{fill:#414042;}</style></defs><g id="Layer_2" data-name="Layer 2"><g id="_ÎÓÈ_1" data-name="—ÎÓÈ_1"><path class="cls-1" d="M9.66,57,20.84,46.65l.13-.13.15-.14h0a2.7,2.7,0,0,0,.5-.7l4.44-9,9.48,2.27a.83.83,0,0,1,.58,1l-3.3,10.68a3,3,0,1,0,5.72,1.74L43,37.56A2.82,2.82,0,0,0,41,34l-7.46-2,2.66-9.31L37.84,26A2.07,2.07,0,0,0,40,27.09l11.87-1.77a2,2,0,0,0-.6-4l-9.85,1.47a.87.87,0,0,1-.92-.47l-3.21-6.26a4.51,4.51,0,0,0-.71-1.4l0-.08h0a4.61,4.61,0,0,0-2.42-1.67l-2.4-.69a5.46,5.46,0,0,0-2-.09l-11.33.95a2.06,2.06,0,0,0-1.83,1.55l-3,11.63a2,2,0,0,0,3.92,1L20,17.62a.89.89,0,0,1,.79-.67l5.05-.5-4.86,17-4.55,9.26L5.63,52.55a3,3,0,1,0,4,4.45Z"/><path class="cls-1" d="M31,10a5.48,5.48,0,1,0-1.44-7.62A5.48,5.48,0,0,0,31,10Z"/><path class="cls-1" d="M57.84,25.94,60.93,23a1.33,1.33,0,0,0-1.82-1.93l-7.86,7.46a1.33,1.33,0,1,0,1.83,1.92l2.33-2.21c8.39,11.54,7.24,26.67,6.49,32H2.33a2.33,2.33,0,1,0,0,4.65H62.59a2.33,2.33,0,0,0,2.33-2.33s0,0,0-.07C65.52,59.34,68.6,40.35,57.84,25.94Z"/></g></g></svg>