<svg xmlns="http://www.w3.org/2000/svg" viewBox="0 0 50.41 72.59"><defs><style>.cls-1{fill:#414042;}</style></defs><g id="Layer_2" data-name="Layer 2"><g id="_ÎÓÈ_1" data-name="—ÎÓÈ_1"><path class="cls-1" d="M41.81,28.48l3.12-3A1.33,1.33,0,1,0,43.1,23.6l-7.86,7.45a1.34,1.34,0,0,0-.05,1.88,1.3,1.3,0,0,0,1,.41,1.35,1.35,0,0,0,.91-.36l2.31-2.2c7.71,10.68,8,26.71,7.56,34.41L14.05,54.8,13.23,61a4.82,4.82,0,0,1,.52,2.17,5,5,0,0,1-10,0,5.08,5.08,0,0,1,.33-1.75c0-.07,0-.14,0-.21L5,55a9.33,9.33,0,0,0-5,8.24H0a9.45,9.45,0,0,0,9.51,9.38H46.36a3.73,3.73,0,0,0,3.22-1.82l.13-.23a3.66,3.66,0,0,0,.41-1.65,3.26,3.26,0,0,0-.06-.62C50.65,62.1,51.69,41.76,41.81,28.48Z"/><path class="cls-1" d="M3.56,32.25l0,.11,0,.11,4,14.58-1,7.24-.65,4.83-.32,2.34a3,3,0,1,0,5.94.84l.38-2.91.66-5,.93-7.14c0-.05,0-.09,0-.13V47l0-.19h0A3.16,3.16,0,0,0,13.5,46L11,36.6l1.63.25,6.56,1a.83.83,0,0,1,.68,1L17.59,49.77a3,3,0,1,0,5.86,1.17L26.4,35.77a2.82,2.82,0,0,0-2.35-3.31l-8.43-1.27,4.44-8.27,1.76,4.68a2.06,2.06,0,0,0,2,1.34l12-.33a2,2,0,1,0-.11-4l-10,.27a.89.89,0,0,1-.86-.57l-2.6-6.6a5.84,5.84,0,0,0-3.06-5.57h0a5.85,5.85,0,0,0-7.92,2.38L4.06,28a6,6,0,0,0-.7,2.76,5.83,5.83,0,0,0,.2,1.5Z"/><path class="cls-1" d="M26.05,9.46a5.48,5.48,0,1,0-7.75-.21A5.47,5.47,0,0,0,26.05,9.46Z"/></g></g></svg>