<svg xmlns="http://www.w3.org/2000/svg" viewBox="0 0 47.98 63.09"><defs><style>.cls-1{fill:#414042;}</style></defs><g id="Layer_2" data-name="Layer 2"><g id="_ÎÓÈ_1" data-name="—ÎÓÈ_1"><path class="cls-1" d="M48,43.61A2.81,2.81,0,0,0,45,40.82l-10.46-.13.07-12.57a5.86,5.86,0,0,0-2.3-4.68V24.9a3.59,3.59,0,0,1-3.59,3.58,3.52,3.52,0,0,1-2.53-1.05,3.59,3.59,0,0,1-1.05-2.55V23.49a5.84,5.84,0,0,0-2.24,4.56L22.84,42.7,1.29,57.63A3,3,0,0,0,.53,61.8h0a3,3,0,0,0,4.18.76l22.68-15.7h1.84l0,.1,12,.08a.83.83,0,0,1,.85.83L42,59.05a3,3,0,0,0,2.93,3h0a3,3,0,0,0,3-3Z"/><path class="cls-1" d="M23.94,19.93a5.37,5.37,0,0,0,1.24.26l.05-10.91a5.48,5.48,0,0,0-1.29,10.65Z"/><path class="cls-1" d="M28.73,27a2.08,2.08,0,0,0,2.08-2.08V2a2,2,0,0,0-4,0l0,7.34-.05,10.76v2.51l0,2.26A2.09,2.09,0,0,0,28.73,27Z"/></g></g></svg>