<svg xmlns="http://www.w3.org/2000/svg" viewBox="0 0 50 66.28"><defs><style>.cls-1{fill:#414042;}</style></defs><g id="Layer_2" data-name="Layer 2"><g id="_ÎÓÈ_1" data-name="—ÎÓÈ_1"><path class="cls-1" d="M25,15.48A5.48,5.48,0,1,0,19.54,10,5.48,5.48,0,0,0,25,15.48Z"/><path class="cls-1" d="M50,1.56H48.94V0h-2.6V3.5H44.42V3.4a2,2,0,0,0-4.05,0v.1h-2V0H35.77V1.56H34.72v6h1.05V9.12h2.61V5.62h2v7.74a.89.89,0,0,1-.59.84l-9.54,3.3H19.79l-9.53-3.3a.88.88,0,0,1-.6-.84V5.62h2v3.5h2.61V7.56h1v-6h-1V0H11.62V3.5h-2V3.4a2,2,0,0,0-4,0v.1H3.66V0H1.05V1.56H0v6H1.05V9.12H3.66V5.62h2V15.4a2.07,2.07,0,0,0,1.4,2l10.32,3.57V42.12h0L13,62.66a3,3,0,1,0,5.87,1.24l4.58-21.78h3.09L31.14,63.9A3,3,0,1,0,37,62.66L32.69,42.12h0V20.93L43,17.36a2.07,2.07,0,0,0,1.4-2V5.62h1.92v3.5h2.6V7.56H50Z"/></g></g></svg>