<svg xmlns="http://www.w3.org/2000/svg" viewBox="0 0 48.95 63.38"><defs><style>.cls-1{fill:#414042;}</style></defs><g id="Layer_2" data-name="Layer 2"><g id="_ÎÓÈ_1" data-name="—ÎÓÈ_1"><path class="cls-1" d="M48.09,25.57,31.8,13.86h0a4.35,4.35,0,0,0-2.6-.88H20.55L7.05,2.18A2,2,0,0,0,4.53,5.34L18.15,16.41v7.85L5.37,7.78A3,3,0,0,0,.63,11.46L18.85,35.34a5,5,0,0,0,.65.86h0a4.68,4.68,0,0,0,3.34,1.4h4.66V60.38a3,3,0,0,0,6,0V20.27l12.25,8.61a2,2,0,1,0,2.32-3.31Z"/><path class="cls-1" d="M25.83,11a5.48,5.48,0,1,0-5.48-5.48A5.48,5.48,0,0,0,25.83,11Z"/></g></g></svg>