<svg xmlns="http://www.w3.org/2000/svg" viewBox="0 0 54.37 37.4"><defs><style>.cls-1{fill:#414042;}</style></defs><g id="Layer_2" data-name="Layer 2"><g id="_ÎÓÈ_1" data-name="—ÎÓÈ_1"><path class="cls-1" d="M7.14,26.69a5.48,5.48,0,1,0,3.57,6.88A5.49,5.49,0,0,0,7.14,26.69Z"/><path class="cls-1" d="M54,32.51,45,16.44l-.09-.16-.07-.12h0a2.91,2.91,0,0,0-1.11-1,3,3,0,0,0-4.05,1.26l-5.07,9.68-13.38.05,3.18-3.69A2.06,2.06,0,0,0,24.6,20l-2.39-4.1a10.24,10.24,0,0,1-3.4,2.19l1.27,2.19a.91.91,0,0,1-.09,1l-5.68,6.76-.15.17-.05.07h0a5.62,5.62,0,0,0,4.48,9l13.27-.06a5.74,5.74,0,0,0,4.72-2.51l0,0,5.69-10.67,6.43,11.24A3,3,0,1,0,54,32.51Z"/><path class="cls-1" d="M15.11,17.34A8.67,8.67,0,1,0,6.44,8.67,8.64,8.64,0,0,0,15.11,17.34ZM14.79,5.62a3.06,3.06,0,0,1,3.06,3.05,2.4,2.4,0,0,1,0,.28,3.05,3.05,0,0,1-2.76,2.75l-.27,0a3.06,3.06,0,1,1,0-6.11Z"/><path class="cls-1" d="M14.79,10.46h0a1.8,1.8,0,0,0,1.77-1.77v0a1.79,1.79,0,1,0-1.79,1.79Z"/></g></g></svg>