<svg xmlns="http://www.w3.org/2000/svg" viewBox="0 0 51.06 66.41"><defs><style>.cls-1{fill:#414042;}</style></defs><g id="Layer_2" data-name="Layer 2"><g id="_ÎÓÈ_1" data-name="—ÎÓÈ_1"><path class="cls-1" d="M34.61,19.69a5.48,5.48,0,1,0-7.75-.08A5.48,5.48,0,0,0,34.61,19.69Z"/><path class="cls-1" d="M50.79,15.12A2,2,0,0,0,48,14.38L31,24.24,24.59,21,21.92,1.75a2,2,0,0,0-4,.55l2.81,20.22L13.33,36.84h0L.33,62a3,3,0,0,0,5.34,2.75L16.21,44.34l.53.28a5.18,5.18,0,0,0,2.25.55l6.67,19.22a3,3,0,0,0,5.67-2l-7.25-20.9,6.34-12.3L50.05,17.89A2,2,0,0,0,50.79,15.12Z"/></g></g></svg>