<svg xmlns="http://www.w3.org/2000/svg" viewBox="0 0 31.09 49.07"><defs><style>.cls-1{fill:#414042;}</style></defs><g id="Layer_2" data-name="Layer 2"><g id="_ÎÓÈ_1" data-name="—ÎÓÈ_1"><path class="cls-1" d="M11,44.42a4.43,4.43,0,0,1-.19-2.77,3.71,3.71,0,0,1,.27-.75,4.42,4.42,0,0,1,1.79-2,4.53,4.53,0,0,1,3.41-.49l6.93,1.78V23.86l7.12-11.37a2.08,2.08,0,0,0-.14-2.4L22.67.75a2,2,0,0,0-3.15,2.54L25.78,11a.89.89,0,0,1,.06,1l-4.67,7.72H9.92L5.25,12.07a.89.89,0,0,1,.06-1l6.26-7.75A2,2,0,0,0,8.42.75L.88,10.09a2.08,2.08,0,0,0-.14,2.4L7.86,23.86V41.73l-5.6,1.43A3,3,0,1,0,3.75,49l9.17-2.35A4.54,4.54,0,0,1,11,44.42Z"/><path class="cls-1" d="M10.07,12.29a5.48,5.48,0,1,0,5.48-5.48A5.48,5.48,0,0,0,10.07,12.29Z"/><path class="cls-1" d="M28.84,43.16l-5.61-1.43-5.66-1.46-1.64-.41a1.76,1.76,0,0,0-.38-.06,3,3,0,0,0-2,.47A3,3,0,0,0,12.28,42h0a3,3,0,0,0,2.16,3.65l1.11.28,11.8,3a3,3,0,0,0,1.49-5.82Z"/></g></g></svg>