<svg xmlns="http://www.w3.org/2000/svg" viewBox="0 0 66.86 27.06"><defs><style>.cls-1{fill:#414042;}</style></defs><g id="Layer_2" data-name="Layer 2"><g id="_ÎÓÈ_1" data-name="—ÎÓÈ_1"><path class="cls-1" d="M57,3.69a4.34,4.34,0,0,1-.22.84,4.43,4.43,0,0,1-2.33,2.53l-10,4.6A11.47,11.47,0,1,0,57,3.69Z"/><path class="cls-1" d="M4.92,16.12a5.48,5.48,0,1,0,6,4.89A5.48,5.48,0,0,0,4.92,16.12Z"/><path class="cls-1" d="M39.68,23H29l4-1.76a5.75,5.75,0,0,0,3.41-4.85,4.53,4.53,0,0,1,.25-1.16,5.09,5.09,0,0,1,2.7-2.9h0l5.91-2.72L53.78,5.7a2.81,2.81,0,0,0,.55-.34l.15-.13c.11-.1.21-.19.3-.29s.1-.13.15-.2a3.28,3.28,0,0,0,.2-.31,1.63,1.63,0,0,0,.11-.23,2.26,2.26,0,0,0,.13-.33,2.33,2.33,0,0,0,.07-.25.09.09,0,0,1,0-.05c0-.1,0-.2,0-.3a2.28,2.28,0,0,0,0-.26c0-.12,0-.25,0-.37a2.17,2.17,0,0,0,0-.25A1.9,1.9,0,0,0,55.34,2a1.27,1.27,0,0,0-.08-.23A3.57,3.57,0,0,0,55,1.31a.6.6,0,0,0-.06-.11,2.66,2.66,0,0,0-.39-.43l-.1-.08a2.34,2.34,0,0,0-.31-.24L53.77.26l-.06,0A3.23,3.23,0,0,0,51.16.3h0L51,.36,41.85,4.59,38.88,6,31,9.61c-1.83.84-3.63,1.73-5.43,2.58l-1.33.63h0c-1.7.76-3.41,1.48-5.1,2.26l-2.85,1.23A5.62,5.62,0,0,0,13.62,24,5.57,5.57,0,0,0,18.08,27h1l20.6.09a2,2,0,0,0,0-4Z"/></g></g></svg>