<svg xmlns="http://www.w3.org/2000/svg" viewBox="0 0 51.51 43.15"><defs><style>.cls-1{fill:#414042;}</style></defs><g id="Layer_2" data-name="Layer 2"><g id="_ÎÓÈ_1" data-name="—ÎÓÈ_1"><path class="cls-1" d="M46,20.89a5.48,5.48,0,1,0,5.48,5.48A5.48,5.48,0,0,0,46,20.89Z"/><path class="cls-1" d="M40.73,19.08l3.4-16.64a2,2,0,1,0-4-.84l-3,13.87L23,9.18A8.83,8.83,0,0,0,11.3,13.7l-1.09,2.46h0L.26,38.82a3,3,0,0,0,1.53,4h0a3,3,0,0,0,4-1.53l10-22.65h0l10,22.76a3,3,0,1,0,5.5-2.42L23.89,22.19l9.58,4.22L35.2,41a2,2,0,0,0,4-.48L37.59,26.88l2.87-6.51A3.11,3.11,0,0,0,40.73,19.08Z"/></g></g></svg>