<svg xmlns="http://www.w3.org/2000/svg" viewBox="0 0 37.33 51.69"><defs><style>.cls-1{fill:#414042;}</style></defs><g id="Layer_2" data-name="Layer 2"><g id="_ÎÓÈ_1" data-name="—ÎÓÈ_1"><path class="cls-1" d="M21.23,9.4a5.48,5.48,0,1,0-7.75-.09A5.48,5.48,0,0,0,21.23,9.4Z"/><path class="cls-1" d="M35.31,13.09,11.92,13h0a5.84,5.84,0,0,0-5.34,3.16L.65,27.62a5.85,5.85,0,0,0,4.83,8.52H17.81L10.87,47a3,3,0,0,0,5,3.29l10-15.44a1.4,1.4,0,0,0,.1-.16l.07-.11h0a3,3,0,0,0,.39-1.46,3,3,0,0,0-3-3h-11l6.74-13.08,16.06.07a2,2,0,0,0,0-4.05Z"/></g></g></svg>