<svg xmlns="http://www.w3.org/2000/svg" viewBox="0 0 62.61 22.33"><defs><style>.cls-1{fill:#414042;}</style></defs><g id="Layer_2" data-name="Layer 2"><g id="_ÎÓÈ_1" data-name="—ÎÓÈ_1"><path class="cls-1" d="M58.79.26a5.48,5.48,0,1,0,3.57,6.88A5.47,5.47,0,0,0,58.79.26Z"/><path class="cls-1" d="M58.23,18.21l-5.84,0a.76.76,0,0,1-.75-.64L50.3,9.19h0a5.62,5.62,0,0,0-5.54-4.56l-13.27.06a5.72,5.72,0,0,0-5.67,5.1L2.21,16.25a3,3,0,0,0-2.1,3.69h0A3,3,0,0,0,3.79,22L26,16l21.26-.09.38,2.37.3,2a2.51,2.51,0,0,0,2.49,2.12l2,0,5.91-.06a2,2,0,0,0,2-2v0A2,2,0,0,0,58.23,18.21Z"/></g></g></svg>