<svg xmlns="http://www.w3.org/2000/svg" viewBox="0 0 57.67 52.81"><defs><style>.cls-1{fill:#414042;}</style></defs><g id="Layer_2" data-name="Layer 2"><g id="_ÎÓÈ_1" data-name="—ÎÓÈ_1"><path class="cls-1" d="M37.15,31.56,26.7,31.43l.08-14.35,5.51,0h2.45l9.44,0a2,2,0,0,0,2-2,2.09,2.09,0,0,0-.15-.79,2.21,2.21,0,0,0-.44-.64,2,2,0,0,0-1.43-.59l-8.68,0H31.86L21.36,13H21a5.86,5.86,0,0,0-5.88,5.82L15,34.22a2.9,2.9,0,0,0,.1.79L15,46.06a.83.83,0,0,1-.83.85L3,46.83a3,3,0,1,0,0,6l15.46,0a2.82,2.82,0,0,0,2.79-2.95l.16-12.13,12,.09a.83.83,0,0,1,.85.83L34.15,49.8a3,3,0,1,0,6,0l0-15.45A2.82,2.82,0,0,0,37.15,31.56Z"/><path class="cls-1" d="M46.2,5.68a11.46,11.46,0,0,0-10.26,6.38l8.24,0a3,3,0,1,1,0,6l-9.4,0A11.47,11.47,0,1,0,46.2,5.68Z"/><path class="cls-1" d="M20.1,10.67a5.48,5.48,0,1,0-3.44-6.94A5.48,5.48,0,0,0,20.1,10.67Z"/></g></g></svg>