<svg xmlns="http://www.w3.org/2000/svg" viewBox="0 0 51.04 35.28"><defs><style>.cls-1{fill:#414042;}</style></defs><g id="Layer_2" data-name="Layer 2"><g id="_ÎÓÈ_1" data-name="—ÎÓÈ_1"><path class="cls-1" d="M50.41,19.53a5.47,5.47,0,0,0-9.78-.17l7.23,7.48A5.48,5.48,0,0,0,50.41,19.53Z"/><path class="cls-1" d="M30.88,17.92A3.45,3.45,0,0,1,32,15.45a3.66,3.66,0,0,1,2.51-1,3.49,3.49,0,0,1,2.47,1.07l2.14,2.21a5.83,5.83,0,0,0-1.55-4.93l-10.66-11A5.81,5.81,0,0,0,17.15,4L.46,30.68a3,3,0,0,0,5.08,3.2l14.24-22.6,9.33,9.65A5.79,5.79,0,0,0,34,22.65l-2.15-2.22A3.47,3.47,0,0,1,30.88,17.92Z"/><path class="cls-1" d="M50.47,31.7l-4.22-4.37L40.08,21l-1.51-1.57-2.71-2.81a2,2,0,0,0-2.92,2.82l2.73,2.81L47.56,34.51a2,2,0,0,0,2.87.05h0A2,2,0,0,0,50.47,31.7Z"/></g></g></svg>